<?xml version="1.0" encoding="UTF-8" standalone="no"?>
<!DOCTYPE svg PUBLIC "-//W3C//DTD SVG 1.1//EN" "http://www.w3.org/Graphics/SVG/1.1/DTD/svg11.dtd">
<svg width="100%" height="100%" viewBox="0 0 1080 1080" version="1.1" xmlns="http://www.w3.org/2000/svg" xmlns:xlink="http://www.w3.org/1999/xlink" xml:space="preserve" xmlns:serif="http://www.serif.com/" style="fill-rule:evenodd;clip-rule:evenodd;stroke-linecap:round;stroke-linejoin:round;stroke-miterlimit:1.5;">
    <g id="Cloud" transform="matrix(0.794181,0,0,0.794181,111.142,25.0913)">
        <path d="M887.753,509.123C923.862,541.19 946.628,587.957 946.628,640C946.628,736.585 868.213,815 771.628,815L343.372,815C227.47,815 133.372,720.902 133.372,605C133.372,489.098 227.47,395 343.372,395C356.879,395 370.09,396.278 382.891,398.72C410.262,320.871 484.472,265 571.628,265C611.283,265 648.257,276.566 679.36,296.505C734.835,332.069 771.628,394.272 771.628,465C816.171,465 856.849,481.677 887.753,509.123Z" style="fill:none;stroke:white;stroke-width:25.18px;"/>
    </g>
    <g transform="matrix(1,0,0,1,37.7501,-2.83545)">
        <path d="M297.667,718.683C297.644,713.164 302.106,708.665 307.625,708.641C313.144,708.618 317.643,713.08 317.667,718.599L318.026,804.363C318.049,809.882 313.587,814.381 308.068,814.405C302.549,814.428 298.049,809.966 298.026,804.447L297.667,718.683Z" style="fill:white;"/>
    </g>
    <g transform="matrix(1,0,0,1,93.448,40.0462)">
        <path d="M297.667,718.683C297.644,713.164 302.106,708.665 307.625,708.641C313.144,708.618 317.643,713.08 317.667,718.599L318.026,804.363C318.049,809.882 313.587,814.381 308.068,814.405C302.549,814.428 298.049,809.966 298.026,804.447L297.667,718.683Z" style="fill:white;"/>
    </g>
    <g transform="matrix(1,0,0,1,148.786,-2.83545)">
        <path d="M297.667,718.683C297.644,713.164 302.106,708.665 307.625,708.641C313.144,708.618 317.643,713.08 317.667,718.599L318.026,804.363C318.049,809.882 313.587,814.381 308.068,814.405C302.549,814.428 298.049,809.966 298.026,804.447L297.667,718.683Z" style="fill:white;"/>
    </g>
    <g transform="matrix(1,0,0,1,315.521,40.0462)">
        <path d="M297.667,718.683C297.644,713.164 302.106,708.665 307.625,708.641C313.144,708.618 317.643,713.08 317.667,718.599L318.026,804.363C318.049,809.882 313.587,814.381 308.068,814.405C302.549,814.428 298.049,809.966 298.026,804.447L297.667,718.683Z" style="fill:white;"/>
    </g>
    <g transform="matrix(1,0,0,1,370.859,-2.83545)">
        <path d="M297.667,718.683C297.644,713.164 302.106,708.665 307.625,708.641C313.144,708.618 317.643,713.08 317.667,718.599L318.026,804.363C318.049,809.882 313.587,814.381 308.068,814.405C302.549,814.428 298.049,809.966 298.026,804.447L297.667,718.683Z" style="fill:white;"/>
    </g>
    <g transform="matrix(1,0,0,1,426.557,40.0462)">
        <path d="M297.667,718.683C297.644,713.164 302.106,708.665 307.625,708.641C313.144,708.618 317.643,713.08 317.667,718.599L318.026,804.363C318.049,809.882 313.587,814.381 308.068,814.405C302.549,814.428 298.049,809.966 298.026,804.447L297.667,718.683Z" style="fill:white;"/>
    </g>
    <g transform="matrix(0.308007,0,0,0.308007,505.175,715.806)">
        <path d="M113.065,249.043L0,249.043L113.065,0L113.065,168.626L226.131,168.626L113.065,417.669L113.065,249.043Z" style="fill-opacity:0;stroke:white;stroke-width:64.93px;stroke-miterlimit:3.19767;"/>
    </g>
</svg>
