<?xml version="1.0" encoding="UTF-8" standalone="no"?>
<!DOCTYPE svg PUBLIC "-//W3C//DTD SVG 1.1//EN" "http://www.w3.org/Graphics/SVG/1.1/DTD/svg11.dtd">
<svg width="100%" height="100%" viewBox="0 0 1080 1080" version="1.1" xmlns="http://www.w3.org/2000/svg" xmlns:xlink="http://www.w3.org/1999/xlink" xml:space="preserve" xmlns:serif="http://www.serif.com/" style="fill-rule:evenodd;clip-rule:evenodd;stroke-linecap:round;stroke-linejoin:round;stroke-miterlimit:3.19767;">
    <g transform="matrix(0.685779,0,0,0.579194,206.507,182.835)">
        <path d="M268.552,617.785C268.551,617.41 268.55,617.035 268.55,616.66C268.55,409.953 410.287,242.133 584.867,242.133C759.447,242.133 901.184,409.953 901.184,616.66C901.184,823.366 759.447,991.186 584.867,991.186C584.504,991.186 584.141,991.185 583.779,991.184C584.497,984.4 584.867,977.489 584.867,970.476C584.867,921.373 566.725,877.248 537.951,846.992C513.324,821.097 480.91,805.362 445.415,805.362C445.415,738.629 416.095,679.94 371.889,646.385C347.105,627.572 317.641,616.66 286.042,616.66C280.131,616.66 274.296,617.041 268.552,617.785Z" style="fill:white;fill-opacity:0;stroke:white;stroke-width:31.51px;"/>
    </g>
    <g transform="matrix(1,0,0,1,67.5969,-9.43601e-11)">
        <path d="M539.254,756.922C533.346,804.051 493.086,840.562 444.367,840.562L210.335,840.562C146.997,840.562 95.575,789.139 95.575,725.802C95.575,662.464 146.997,611.042 210.335,611.042C217.716,611.042 224.936,611.74 231.931,613.074C245.616,574.152 280.726,545.283 323.078,540.652C327.017,540.221 331.019,540 335.072,540C356.742,540 376.948,546.32 393.944,557.217C424.26,576.651 444.367,610.644 444.367,649.295C468.708,649.295 490.938,658.409 507.826,673.407C527.559,690.931 540,716.488 540,744.928C540,748.99 539.746,752.993 539.254,756.922Z" style="fill:white;fill-opacity:0;stroke:white;stroke-width:20px;"/>
    </g>
    <g transform="matrix(0.72099,0,0,0.74224,213.875,136.718)">
        <path d="M546.086,180.603C530.776,180.603 518.345,168.529 518.345,153.658C518.345,138.786 530.776,126.712 546.086,126.712C561.396,126.712 573.826,138.786 573.826,153.658C573.826,168.529 561.396,180.603 546.086,180.603ZM810.077,286.898C799.251,276.382 799.251,259.307 810.076,248.791C820.902,238.275 838.481,238.275 849.306,248.791C860.132,259.307 860.133,276.382 849.307,286.898C838.481,297.414 820.902,297.414 810.077,286.898ZM919.504,543.331C919.504,528.459 931.934,516.385 947.244,516.385C962.554,516.385 974.983,528.459 974.984,543.331C974.984,558.202 962.554,570.277 947.244,570.277C931.934,570.277 919.504,558.203 919.504,543.331ZM810.077,799.765C820.903,789.249 838.481,789.248 849.307,799.764C860.133,810.28 860.132,827.355 849.307,837.871C838.481,848.387 820.902,848.387 810.077,837.871C799.251,827.356 799.251,810.28 810.077,799.765ZM546.086,906.059C561.396,906.059 573.826,918.133 573.826,933.005C573.826,947.876 561.396,959.95 546.086,959.95C530.776,959.95 518.346,947.876 518.346,933.005C518.346,918.133 530.776,906.059 546.086,906.059ZM172.667,543.332C172.667,558.203 160.237,570.277 144.927,570.277C129.617,570.277 117.188,558.203 117.188,543.332C117.188,528.46 129.617,516.386 144.927,516.386C160.237,516.386 172.667,528.46 172.667,543.332ZM282.094,286.898C271.269,297.414 253.69,297.414 242.864,286.898C232.038,276.382 232.039,259.307 242.864,248.791C253.69,238.275 271.269,238.275 282.095,248.791C292.92,259.307 292.92,276.382 282.094,286.898Z" style="fill:white;"/>
    </g>
</svg>
