<?xml version="1.0" encoding="UTF-8" standalone="no"?>
<!DOCTYPE svg PUBLIC "-//W3C//DTD SVG 1.1//EN" "http://www.w3.org/Graphics/SVG/1.1/DTD/svg11.dtd">
<svg width="100%" height="100%" viewBox="0 0 1080 1080" version="1.1" xmlns="http://www.w3.org/2000/svg" xmlns:xlink="http://www.w3.org/1999/xlink" xml:space="preserve" xmlns:serif="http://www.serif.com/" style="fill-rule:evenodd;clip-rule:evenodd;stroke-linejoin:round;stroke-miterlimit:2;">
    <g transform="matrix(0.987804,0.1557,-0.1557,0.987804,90.6635,-77.4923)">
        <g transform="matrix(0.987804,-0.1557,0.1557,0.987804,-77.4923,90.6635)">
            <path d="M334.683,446.897C367.394,452.053 389.765,482.796 384.609,515.507C379.453,548.218 348.71,570.589 315.999,565.433C283.288,560.277 260.917,529.534 266.073,496.823C271.229,464.112 301.972,441.741 334.683,446.897ZM328.455,486.409C317.551,484.69 307.304,492.147 305.585,503.051C303.866,513.955 311.323,524.202 322.227,525.921C333.131,527.64 343.379,520.183 345.097,509.279C346.816,498.375 339.359,488.128 328.455,486.409Z" style="fill:white;"/>
            <path d="M446.897,745.317C452.053,712.606 482.796,690.235 515.507,695.391C548.218,700.547 570.589,731.29 565.433,764.001C560.277,796.712 529.534,819.083 496.823,813.927C464.112,808.771 441.741,778.028 446.897,745.317ZM486.409,751.545C484.69,762.449 492.147,772.696 503.051,774.415C513.955,776.134 524.202,768.677 525.921,757.773C527.64,746.869 520.183,736.621 509.279,734.903C498.375,733.184 488.128,740.641 486.409,751.545Z" style="fill:white;"/>
            <path d="M328.985,619.347C355.761,599.863 393.319,605.783 412.803,632.559C432.287,659.335 426.368,696.892 399.592,716.377C372.815,735.861 335.258,729.941 315.774,703.165C296.289,676.389 302.209,638.831 328.985,619.347ZM352.521,651.69C343.595,658.185 341.622,670.704 348.117,679.63C354.611,688.555 367.131,690.528 376.056,684.033C384.981,677.539 386.955,665.019 380.46,656.094C373.965,647.169 361.446,645.195 352.521,651.69Z" style="fill:white;"/>
            <path d="M619.347,751.015C599.863,724.239 605.783,686.681 632.559,667.197C659.335,647.713 696.892,653.632 716.377,680.408C735.861,707.185 729.941,744.742 703.165,764.226C676.389,783.711 638.831,777.791 619.347,751.015ZM651.69,727.479C658.185,736.405 670.704,738.378 679.63,731.883C688.555,725.389 690.528,712.869 684.033,703.944C677.539,695.019 665.019,693.045 656.094,699.54C647.169,706.035 645.195,718.554 651.69,727.479Z" style="fill:white;"/>
            <path d="M764.001,514.567C796.712,519.723 819.083,550.466 813.927,583.177C808.771,615.888 778.028,638.259 745.317,633.103C712.606,627.947 690.235,597.204 695.391,564.493C700.547,531.782 731.29,509.411 764.001,514.567ZM757.773,554.079C746.869,552.36 736.621,559.817 734.903,570.721C733.184,581.625 740.641,591.872 751.545,593.591C762.449,595.31 772.696,587.853 774.415,576.949C776.134,566.045 768.677,555.798 757.773,554.079Z" style="fill:white;"/>
            <path d="M514.567,315.999C519.723,283.288 550.466,260.917 583.177,266.073C615.888,271.229 638.259,301.972 633.103,334.683C627.947,367.394 597.204,389.765 564.493,384.609C531.782,379.453 509.411,348.71 514.567,315.999ZM554.079,322.227C552.36,333.131 559.817,343.379 570.721,345.097C581.625,346.816 591.872,339.359 593.591,328.455C595.31,317.551 587.853,307.304 576.949,305.585C566.045,303.866 555.798,311.323 554.079,322.227Z" style="fill:white;"/>
            <path d="M680.408,363.623C707.185,344.139 744.742,350.059 764.226,376.835C783.711,403.611 777.791,441.169 751.015,460.653C724.239,480.137 686.681,474.217 667.197,447.441C647.713,420.665 653.632,383.108 680.408,363.623ZM703.944,395.967C695.019,402.461 693.045,414.981 699.54,423.906C706.035,432.831 718.554,434.805 727.479,428.31C736.405,421.815 738.378,409.296 731.883,400.37C725.389,391.445 712.869,389.472 703.944,395.967Z" style="fill:white;"/>
            <path d="M363.623,399.592C344.139,372.815 350.059,335.258 376.835,315.774C403.611,296.289 441.169,302.209 460.653,328.985C480.137,355.761 474.217,393.319 447.441,412.803C420.665,432.287 383.108,426.368 363.623,399.592ZM395.967,376.056C402.461,384.981 414.981,386.955 423.906,380.46C432.831,373.965 434.805,361.446 428.31,352.521C421.815,343.595 409.296,341.622 400.37,348.117C391.445,354.611 389.472,367.131 395.967,376.056Z" style="fill:white;"/>
            <path d="M495.419,512.726L395.967,376.056C389.472,367.131 391.445,354.611 400.37,348.117C409.296,341.622 421.815,343.595 428.31,352.521L527.762,489.191L554.079,322.227C555.798,311.323 566.045,303.866 576.949,305.585C587.853,307.304 595.31,317.551 593.591,328.455L567.274,495.419L703.944,395.967C712.869,389.472 725.389,391.445 731.883,400.37C738.378,409.296 736.405,421.815 727.479,428.31L590.809,527.762L757.773,554.079C768.677,555.798 776.134,566.045 774.415,576.949C772.696,587.853 762.449,595.31 751.545,593.591L584.581,567.274L684.033,703.944C690.528,712.869 688.555,725.389 679.63,731.883C670.704,738.378 658.185,736.405 651.69,727.479L552.238,590.809L525.921,757.773C524.202,768.677 513.955,776.134 503.051,774.415C492.147,772.696 484.69,762.449 486.409,751.545L512.726,584.581L376.056,684.033C367.131,690.528 354.611,688.555 348.117,679.63C341.622,670.704 343.595,658.185 352.521,651.69L489.191,552.238L322.227,525.921C311.323,524.202 303.866,513.955 305.585,503.051C307.304,492.147 317.551,484.69 328.455,486.409L495.419,512.726Z" style="fill:white;"/>
        </g>
    </g>
    <g transform="matrix(0.335277,-0.0451223,0.0451223,0.335277,90.9417,638.246)">
        <g transform="matrix(2.92955,0.394264,-0.394264,2.92955,-14.7804,-1905.63)">
            <path d="M221.393,783.829C232.88,782.283 243.461,790.353 245.007,801.84C246.553,813.327 238.482,823.907 226.995,825.453C215.509,826.999 204.928,818.929 203.382,807.442C201.836,795.955 209.907,785.374 221.393,783.829ZM223.261,797.703C219.432,798.219 216.742,801.746 217.257,805.575C217.772,809.403 221.299,812.094 225.128,811.578C228.957,811.063 231.647,807.536 231.132,803.707C230.616,799.878 227.089,797.188 223.261,797.703Z" style="fill:white;"/>
            <path d="M285.257,869.893C283.711,858.406 291.781,847.826 303.268,846.28C314.755,844.734 325.336,852.804 326.881,864.291C328.427,875.778 320.357,886.359 308.87,887.904C297.383,889.45 286.803,881.38 285.257,869.893ZM299.132,868.026C299.647,871.855 303.174,874.545 307.003,874.03C310.832,873.514 313.522,869.987 313.007,866.158C312.491,862.33 308.964,859.639 305.135,860.155C301.307,860.67 298.616,864.197 299.132,868.026Z" style="fill:white;"/>
            <path d="M235.5,840.087C242.53,830.872 255.718,829.097 264.934,836.126C274.149,843.155 275.924,856.344 268.895,865.559C261.866,874.775 248.677,876.55 239.462,869.52C230.246,862.491 228.471,849.303 235.5,840.087ZM246.632,848.578C244.289,851.65 244.881,856.046 247.952,858.389C251.024,860.732 255.42,860.14 257.763,857.069C260.106,853.997 259.515,849.601 256.443,847.258C253.371,844.915 248.975,845.506 246.632,848.578Z" style="fill:white;"/>
            <path d="M341.516,855.786C332.3,848.757 330.525,835.568 337.554,826.353C344.584,817.137 357.772,815.362 366.988,822.392C376.203,829.421 377.978,842.609 370.949,851.825C363.92,861.04 350.731,862.815 341.516,855.786ZM350.006,844.654C353.078,846.997 357.474,846.406 359.817,843.334C362.16,840.262 361.569,835.866 358.497,833.523C355.425,831.18 351.029,831.772 348.686,834.843C346.343,837.915 346.934,842.311 350.006,844.654Z" style="fill:white;"/>
            <path d="M365.719,764.405C377.206,762.859 387.787,770.93 389.333,782.416C390.879,793.903 382.808,804.484 371.321,806.03C359.835,807.576 349.254,799.505 347.708,788.018C346.162,776.532 354.233,765.951 365.719,764.405ZM367.587,778.28C363.758,778.795 361.068,782.322 361.583,786.151C362.098,789.98 365.625,792.67 369.454,792.155C373.283,791.639 375.973,788.112 375.458,784.284C374.942,780.455 371.416,777.764 367.587,778.28Z" style="fill:white;"/>
            <path d="M265.833,725.567C264.287,714.08 272.358,703.5 283.844,701.954C295.331,700.408 305.912,708.478 307.458,719.965C309.004,731.452 300.933,742.033 289.446,743.578C277.96,745.124 267.379,737.054 265.833,725.567ZM279.708,723.7C280.223,727.529 283.75,730.219 287.579,729.704C291.408,729.188 294.098,725.661 293.583,721.832C293.068,718.004 289.541,715.313 285.712,715.829C281.883,716.344 279.193,719.871 279.708,723.7Z" style="fill:white;"/>
            <path d="M323.82,724.299C330.849,715.083 344.037,713.308 353.253,720.338C362.468,727.367 364.243,740.555 357.214,749.771C350.185,758.986 336.996,760.761 327.781,753.732C318.566,746.703 316.791,733.514 323.82,724.299ZM334.951,732.789C332.608,735.861 333.2,740.257 336.272,742.601C339.343,744.944 343.74,744.352 346.083,741.28C348.426,738.208 347.834,733.812 344.762,731.469C341.69,729.126 337.294,729.718 334.951,732.789Z" style="fill:white;"/>
            <path d="M225.727,767.467C216.512,760.437 214.737,747.249 221.766,738.033C228.795,728.818 241.984,727.043 251.199,734.072C260.414,741.101 262.189,754.29 255.16,763.505C248.131,772.721 234.942,774.496 225.727,767.467ZM234.218,756.335C237.289,758.678 241.686,758.087 244.029,755.015C246.372,751.943 245.78,747.547 242.708,745.204C239.637,742.861 235.24,743.452 232.897,746.524C230.554,749.596 231.146,753.992 234.218,756.335Z" style="fill:white;"/>
            <path d="M278.675,790.246L234.218,756.335C231.146,753.992 230.554,749.596 232.897,746.524C235.24,743.452 239.637,742.861 242.708,745.204L287.166,779.114L279.708,723.7C279.193,719.871 281.883,716.344 285.712,715.829C289.541,715.313 293.068,718.004 293.583,721.832L301.041,777.247L334.951,732.789C337.294,729.718 341.69,729.126 344.762,731.469C347.834,733.812 348.426,738.208 346.083,741.28L312.172,785.738L367.587,778.28C371.416,777.764 374.942,780.455 375.458,784.284C375.973,788.112 373.283,791.639 369.454,792.155L314.039,799.612L358.497,833.523C361.569,835.866 362.16,840.262 359.817,843.334C357.474,846.406 353.078,846.997 350.006,844.654L305.549,810.744L313.007,866.158C313.522,869.987 310.832,873.514 307.003,874.03C303.174,874.545 299.647,871.855 299.132,868.026L291.674,812.611L257.763,857.069C255.42,860.14 251.024,860.732 247.952,858.389C244.881,856.046 244.289,851.65 246.632,848.578L280.542,804.121L225.128,811.578C221.299,812.094 217.772,809.403 217.257,805.575C216.742,801.746 219.432,798.219 223.261,797.703L278.675,790.246Z" style="fill:white;"/>
        </g>
    </g>
    <g transform="matrix(0.431081,-0.107009,0.107009,0.431081,466.506,136.639)">
        <g transform="matrix(2.1851,0.542418,-0.542418,2.1851,-945.248,-551.612)">
            <path d="M655.043,312.238C667.899,309.047 680.927,316.893 684.119,329.749C687.31,342.604 679.464,355.633 666.608,358.824C653.752,362.015 640.724,354.169 637.533,341.313C634.341,328.457 642.188,315.429 655.043,312.238ZM658.898,327.766C654.613,328.83 651.998,333.173 653.061,337.458C654.125,341.743 658.468,344.359 662.753,343.295C667.038,342.231 669.654,337.889 668.59,333.603C667.526,329.318 663.183,326.703 658.898,327.766Z" style="fill:white;"/>
            <path d="M757.675,413.67C754.484,400.814 762.33,387.786 775.186,384.595C788.041,381.404 801.07,389.25 804.261,402.106C807.452,414.962 799.606,427.99 786.75,431.181C773.894,434.372 760.866,426.526 757.675,413.67ZM773.203,409.815C774.267,414.101 778.61,416.716 782.895,415.652C787.18,414.589 789.796,410.246 788.732,405.961C787.668,401.675 783.326,399.06 779.04,400.124C774.755,401.187 772.14,405.53 773.203,409.815Z" style="fill:white;"/>
            <path d="M685.352,384.21C692.186,372.863 706.946,369.199 718.293,376.032C729.64,382.866 733.304,397.627 726.47,408.974C719.636,420.321 704.876,423.985 693.529,417.151C682.182,410.317 678.518,395.557 685.352,384.21ZM699.058,392.464C696.78,396.247 698.001,401.167 701.784,403.445C705.566,405.723 710.486,404.501 712.764,400.719C715.042,396.937 713.821,392.017 710.038,389.739C706.256,387.461 701.336,388.682 699.058,392.464Z" style="fill:white;"/>
            <path d="M829.647,383.362C818.3,376.528 814.636,361.767 821.469,350.42C828.303,339.074 843.064,335.409 854.411,342.243C865.758,349.077 869.422,363.838 862.588,375.185C855.754,386.532 840.994,390.196 829.647,383.362ZM837.901,369.656C841.684,371.934 846.604,370.712 848.882,366.93C851.16,363.148 849.938,358.227 846.156,355.949C842.374,353.672 837.454,354.893 835.176,358.675C832.898,362.458 834.119,367.378 837.901,369.656Z" style="fill:white;"/>
            <path d="M847.543,264.453C860.399,261.261 873.427,269.108 876.618,281.964C879.809,294.819 871.963,307.848 859.107,311.039C846.251,314.23 833.223,306.384 830.032,293.528C826.841,280.672 834.687,267.644 847.543,264.453ZM851.398,279.981C847.112,281.045 844.497,285.388 845.561,289.673C846.624,293.958 850.967,296.574 855.252,295.51C859.538,294.446 862.153,290.104 861.089,285.818C860.026,281.533 855.683,278.918 851.398,279.981Z" style="fill:white;"/>
            <path d="M709.89,221.171C706.699,208.315 714.545,195.287 727.401,192.096C740.256,188.904 753.285,196.751 756.476,209.606C759.667,222.462 751.821,235.49 738.965,238.682C726.109,241.873 713.081,234.027 709.89,221.171ZM725.418,217.316C726.482,221.601 730.825,224.217 735.11,223.153C739.395,222.089 742.011,217.746 740.947,213.461C739.883,209.176 735.541,206.561 731.255,207.624C726.97,208.688 724.355,213.031 725.418,217.316Z" style="fill:white;"/>
            <path d="M787.68,214.303C794.514,202.956 809.275,199.292 820.622,206.126C831.969,212.96 835.633,227.72 828.799,239.067C821.965,250.414 807.204,254.078 795.857,247.244C784.511,240.41 780.846,225.65 787.68,214.303ZM801.386,222.558C799.109,226.34 800.33,231.26 804.112,233.538C807.895,235.816 812.815,234.595 815.093,230.812C817.371,227.03 816.149,222.11 812.367,219.832C808.585,217.554 803.664,218.775 801.386,222.558Z" style="fill:white;"/>
            <path d="M659.74,281.033C648.393,274.199 644.729,259.439 651.563,248.092C658.397,236.745 673.157,233.081 684.504,239.915C695.851,246.749 699.515,261.509 692.681,272.856C685.847,284.203 671.087,287.867 659.74,281.033ZM667.995,267.327C671.777,269.605 676.697,268.384 678.975,264.601C681.253,260.819 680.032,255.899 676.249,253.621C672.467,251.343 667.547,252.564 665.269,256.347C662.991,260.129 664.212,265.049 667.995,267.327Z" style="fill:white;"/>
            <path d="M736.403,308.527L667.995,267.327C664.212,265.049 662.991,260.129 665.269,256.347C667.547,252.564 672.467,251.343 676.249,253.621L744.658,294.821L725.418,217.316C724.355,213.031 726.97,208.688 731.255,207.624C735.541,206.561 739.883,209.176 740.947,213.461L760.187,290.966L801.386,222.558C803.664,218.775 808.585,217.554 812.367,219.832C816.149,222.11 817.371,227.03 815.093,230.812L773.893,299.221L851.398,279.981C855.683,278.918 860.026,281.533 861.089,285.818C862.153,290.104 859.538,294.446 855.252,295.51L777.748,314.75L846.156,355.949C849.938,358.227 851.16,363.148 848.882,366.93C846.604,370.712 841.684,371.934 837.901,369.656L769.493,328.456L788.732,405.961C789.796,410.246 787.18,414.589 782.895,415.652C778.61,416.716 774.267,414.101 773.203,409.815L753.964,332.311L712.764,400.719C710.486,404.501 705.566,405.723 701.784,403.445C698.001,401.167 696.78,396.247 699.058,392.464L740.258,324.056L662.753,343.295C658.468,344.359 654.125,341.743 653.061,337.458C651.998,333.173 654.613,328.83 658.898,327.766L736.403,308.527Z" style="fill:white;"/>
        </g>
    </g>
</svg>
