<?xml version="1.0" encoding="UTF-8" standalone="no"?>
<!DOCTYPE svg PUBLIC "-//W3C//DTD SVG 1.1//EN" "http://www.w3.org/Graphics/SVG/1.1/DTD/svg11.dtd">
<svg width="100%" height="100%" viewBox="0 0 1080 1080" version="1.1" xmlns="http://www.w3.org/2000/svg" xmlns:xlink="http://www.w3.org/1999/xlink" xml:space="preserve" xmlns:serif="http://www.serif.com/" style="fill-rule:evenodd;clip-rule:evenodd;stroke-linecap:round;stroke-linejoin:round;stroke-miterlimit:1.5;">
    <g id="Cloud" transform="matrix(0.794181,0,0,0.794181,90.6114,55.8124)">
        <path d="M887.753,509.123C923.862,541.19 946.628,587.957 946.628,640C946.628,736.585 868.213,815 771.628,815L343.372,815C227.47,815 133.372,720.902 133.372,605C133.372,489.098 227.47,395 343.372,395C356.879,395 370.09,396.278 382.891,398.72C410.262,320.871 484.472,265 571.628,265C611.283,265 648.257,276.566 679.36,296.505C734.835,332.069 771.628,394.272 771.628,465C816.171,465 856.849,481.677 887.753,509.123Z" style="fill:none;stroke:white;stroke-width:25.18px;"/>
    </g>
    <g id="Sun" transform="matrix(0.660223,0,0,0.580151,188.798,159.505)">
        <path d="M668.483,227.157C701.556,180.025 752.474,149.807 809.545,149.807C909.129,149.807 989.98,241.816 989.98,355.145C989.98,421.571 962.203,480.672 919.159,518.215C881.984,480.644 833.052,457.814 779.472,457.814C779.472,360.992 735.213,275.842 668.483,227.157Z" style="fill:none;stroke:white;stroke-width:32.18px;"/>
    </g>
    <g transform="matrix(1.13521,0,0,1.04709,-132.878,0.377639)">
        <path d="M755.681,214.357C750.819,214.357 746.872,210.078 746.872,204.807C746.872,199.536 750.819,195.256 755.681,195.256C760.543,195.256 764.49,199.536 764.49,204.807C764.49,210.078 760.543,214.357 755.681,214.357ZM822.34,235.579C818.253,232.724 817.073,226.809 819.706,222.378C822.339,217.947 827.795,216.667 831.882,219.522C835.969,222.377 837.149,228.292 834.516,232.723C831.883,237.154 826.427,238.433 822.34,235.579ZM867.883,292.524C865.859,287.732 867.804,282.059 872.225,279.865C876.645,277.671 881.878,279.781 883.901,284.573C885.925,289.366 883.979,295.038 879.559,297.232C875.138,299.427 869.906,297.317 867.883,292.524ZM877.764,367.101C878.451,361.883 882.917,358.251 887.73,358.996C892.543,359.741 895.893,364.582 895.205,369.801C894.518,375.019 890.053,378.65 885.24,377.905C880.427,377.161 877.077,372.319 877.764,367.101ZM848.871,435.597C852.057,431.615 857.625,431.187 861.298,434.64C864.97,438.094 865.366,444.131 862.18,448.113C858.994,452.094 853.426,452.523 849.753,449.069C846.081,445.616 845.685,439.579 848.871,435.597ZM689.023,235.578C684.936,238.433 679.48,237.154 676.846,232.723C674.213,228.292 675.393,222.377 679.48,219.522C683.567,216.667 689.023,217.947 691.657,222.378C694.29,226.808 693.11,232.724 689.023,235.578Z" style="fill:white;"/>
    </g>
    <g transform="matrix(1,0,0,1,17.2191,27.8857)">
        <path d="M297.667,718.683C297.644,713.164 302.106,708.665 307.625,708.641C313.144,708.618 317.643,713.08 317.667,718.599L318.026,804.363C318.049,809.882 313.587,814.381 308.068,814.405C302.549,814.428 298.049,809.966 298.026,804.447L297.667,718.683Z" style="fill:white;"/>
    </g>
    <g transform="matrix(1,0,0,1,72.917,70.7673)">
        <path d="M297.667,718.683C297.644,713.164 302.106,708.665 307.625,708.641C313.144,708.618 317.643,713.08 317.667,718.599L318.026,804.363C318.049,809.882 313.587,814.381 308.068,814.405C302.549,814.428 298.049,809.966 298.026,804.447L297.667,718.683Z" style="fill:white;"/>
    </g>
    <g transform="matrix(1,0,0,1,128.255,27.8857)">
        <path d="M297.667,718.683C297.644,713.164 302.106,708.665 307.625,708.641C313.144,708.618 317.643,713.08 317.667,718.599L318.026,804.363C318.049,809.882 313.587,814.381 308.068,814.405C302.549,814.428 298.049,809.966 298.026,804.447L297.667,718.683Z" style="fill:white;"/>
    </g>
    <g transform="matrix(1,0,0,1,183.953,70.7673)">
        <path d="M297.667,718.683C297.644,713.164 302.106,708.665 307.625,708.641C313.144,708.618 317.643,713.08 317.667,718.599L318.026,804.363C318.049,809.882 313.587,814.381 308.068,814.405C302.549,814.428 298.049,809.966 298.026,804.447L297.667,718.683Z" style="fill:white;"/>
    </g>
    <g transform="matrix(1,0,0,1,239.292,27.8857)">
        <path d="M297.667,718.683C297.644,713.164 302.106,708.665 307.625,708.641C313.144,708.618 317.643,713.08 317.667,718.599L318.026,804.363C318.049,809.882 313.587,814.381 308.068,814.405C302.549,814.428 298.049,809.966 298.026,804.447L297.667,718.683Z" style="fill:white;"/>
    </g>
    <g transform="matrix(1,0,0,1,294.99,70.7673)">
        <path d="M297.667,718.683C297.644,713.164 302.106,708.665 307.625,708.641C313.144,708.618 317.643,713.08 317.667,718.599L318.026,804.363C318.049,809.882 313.587,814.381 308.068,814.405C302.549,814.428 298.049,809.966 298.026,804.447L297.667,718.683Z" style="fill:white;"/>
    </g>
    <g transform="matrix(1,0,0,1,350.328,27.8857)">
        <path d="M297.667,718.683C297.644,713.164 302.106,708.665 307.625,708.641C313.144,708.618 317.643,713.08 317.667,718.599L318.026,804.363C318.049,809.882 313.587,814.381 308.068,814.405C302.549,814.428 298.049,809.966 298.026,804.447L297.667,718.683Z" style="fill:white;"/>
    </g>
    <g transform="matrix(1,0,0,1,406.026,70.7673)">
        <path d="M297.667,718.683C297.644,713.164 302.106,708.665 307.625,708.641C313.144,708.618 317.643,713.08 317.667,718.599L318.026,804.363C318.049,809.882 313.587,814.381 308.068,814.405C302.549,814.428 298.049,809.966 298.026,804.447L297.667,718.683Z" style="fill:white;"/>
    </g>
</svg>
