<?xml version="1.0" encoding="UTF-8" standalone="no"?>
<!DOCTYPE svg PUBLIC "-//W3C//DTD SVG 1.1//EN" "http://www.w3.org/Graphics/SVG/1.1/DTD/svg11.dtd">
<svg width="100%" height="100%" viewBox="0 0 1080 1080" version="1.1" xmlns="http://www.w3.org/2000/svg" xmlns:xlink="http://www.w3.org/1999/xlink" xml:space="preserve" xmlns:serif="http://www.serif.com/" style="fill-rule:evenodd;clip-rule:evenodd;stroke-linecap:round;stroke-linejoin:round;stroke-miterlimit:3.19767;">
    <g transform="matrix(0.948417,0,0,0.801011,-14.6978,46.0487)">
        <ellipse cx="584.867" cy="616.66" rx="316.317" ry="374.527" style="fill:white;fill-opacity:0;stroke:white;stroke-width:22.78px;"/>
    </g>
    <g transform="matrix(0.997113,0,0,1.0265,-4.50883,-17.7297)">
        <ellipse cx="546.086" cy="543.331" rx="401.158" ry="389.674" style="fill:white;fill-opacity:0;"/>
        <path d="M546.086,182.883C529.48,182.883 515.998,169.788 515.998,153.658C515.998,137.528 529.48,124.432 546.086,124.432C562.691,124.432 576.173,137.528 576.173,153.658C576.173,169.788 562.691,182.883 546.086,182.883ZM808.417,288.51C796.675,277.104 796.675,258.584 808.417,247.179C820.158,235.773 839.224,235.773 850.966,247.179C862.708,258.584 862.708,277.105 850.967,288.51C839.225,299.916 820.159,299.916 808.417,288.51ZM917.157,543.331C917.157,527.201 930.638,514.105 947.244,514.105C963.849,514.105 977.331,527.201 977.331,543.331C977.331,559.461 963.849,572.557 947.244,572.557C930.638,572.557 917.157,559.461 917.157,543.331ZM808.417,798.152C820.159,786.747 839.225,786.746 850.967,798.152C862.709,809.558 862.708,828.078 850.966,839.483C839.225,850.889 820.159,850.889 808.417,839.484C796.675,828.078 796.675,809.558 808.417,798.152ZM546.086,903.779C562.691,903.779 576.173,916.875 576.173,933.005C576.173,949.135 562.691,962.23 546.086,962.23C529.48,962.23 515.998,949.135 515.998,933.005C515.998,916.875 529.48,903.779 546.086,903.779ZM283.754,798.153C295.496,809.558 295.496,828.078 283.755,839.484C272.013,850.89 252.947,850.889 241.205,839.484C229.463,828.078 229.463,809.558 241.205,798.152C252.946,786.747 272.012,786.747 283.754,798.153ZM175.014,543.331C175.014,559.461 161.533,572.557 144.927,572.557C128.322,572.557 114.84,559.461 114.84,543.331C114.84,527.201 128.322,514.105 144.927,514.105C161.533,514.105 175.014,527.201 175.014,543.331ZM283.754,288.51C272.012,299.916 252.946,299.916 241.204,288.51C229.463,277.105 229.463,258.585 241.205,247.179C252.947,235.773 272.013,235.773 283.754,247.179C295.496,258.584 295.496,277.104 283.754,288.51Z" style="fill:white;"/>
    </g>
</svg>
