<?xml version="1.0" encoding="UTF-8" standalone="no"?>
<!DOCTYPE svg PUBLIC "-//W3C//DTD SVG 1.1//EN" "http://www.w3.org/Graphics/SVG/1.1/DTD/svg11.dtd">
<svg width="100%" height="100%" viewBox="0 0 1080 1080" version="1.1" xmlns="http://www.w3.org/2000/svg" xmlns:xlink="http://www.w3.org/1999/xlink" xml:space="preserve" xmlns:serif="http://www.serif.com/" style="fill-rule:evenodd;clip-rule:evenodd;stroke-linejoin:round;stroke-miterlimit:2;">
    <g transform="matrix(1.22953,0,0,1.22953,-123.948,-81.3939)">
        <path d="M540,425C603.47,425 655,476.53 655,540C655,603.47 603.47,655 540,655C476.53,655 425,603.47 425,540C425,476.53 476.53,425 540,425ZM536.692,549.85L536.692,608.255C536.692,609.911 538.036,611.255 539.692,611.255C541.348,611.255 542.692,609.911 542.692,608.255L542.692,549.85C544.182,549.383 545.583,548.56 546.763,547.381L607.703,486.441C611.606,482.538 611.606,476.201 607.703,472.299C603.8,468.396 597.464,468.396 593.561,472.299L539.692,526.168L511.844,498.319C507.941,494.417 501.604,494.417 497.701,498.319C493.799,502.222 493.799,508.559 497.701,512.461L532.621,547.381C533.8,548.56 535.202,549.383 536.692,549.85ZM465,540C465,534.481 460.519,530 455,530C449.481,530 445,534.481 445,540C445,545.519 449.481,550 455,550C460.519,550 465,545.519 465,540ZM540,465C545.519,465 550,460.519 550,455C550,449.481 545.519,445 540,445C534.481,445 530,449.481 530,455C530,460.519 534.481,465 540,465ZM615,540C615,545.519 619.481,550 625,550C630.519,550 635,545.519 635,540C635,534.481 630.519,530 625,530C619.481,530 615,534.481 615,540ZM540,615C534.481,615 530,619.481 530,625C530,630.519 534.481,635 540,635C545.519,635 550,630.519 550,625C550,619.481 545.519,615 540,615Z"/>
    </g>
    <g transform="matrix(1.22953,0,0,1.22953,-123.948,-81.3939)">
        <path d="M809.539,488.346C836.153,511.981 852.936,546.45 852.936,584.808C852.936,655.995 795.142,713.79 723.955,713.79L383.842,713.79C297.313,713.79 227.064,643.54 227.064,557.012C227.064,470.484 297.313,400.234 383.842,400.234C393.928,400.234 403.794,401.188 413.353,403.011C418.213,403.938 423.02,401.172 424.661,396.505C445.03,338.57 500.257,296.991 565.119,296.991C594.625,296.991 622.137,305.594 645.28,320.43C686.566,346.898 713.955,393.188 713.955,445.827C713.955,451.35 718.432,455.827 723.955,455.827C756.782,455.827 786.762,468.118 809.539,488.346ZM540,405C465.491,405 405,465.491 405,540C405,614.509 465.491,675 540,675C614.509,675 675,614.509 675,540C675,465.491 614.509,405 540,405Z"/>
    </g>
    <g transform="matrix(1.22953,0,0,1.22953,-123.948,-81.3939)">
        <path d="M822.819,473.391C853.558,500.69 872.936,540.504 872.936,584.808C872.936,667.034 806.18,733.79 723.955,733.79L383.842,733.79C286.275,733.79 207.064,654.579 207.064,557.012C207.064,459.446 286.275,380.234 383.842,380.234C392.31,380.234 400.639,380.831 408.791,381.986C433.987,320.414 494.522,276.991 565.119,276.991C598.598,276.991 629.815,286.758 656.074,303.593C700.352,331.978 730.526,380.471 733.681,436.14C767.783,438.342 798.775,452.039 822.819,473.391ZM809.539,488.346C786.762,468.118 756.782,455.827 723.955,455.827C718.432,455.827 713.955,451.35 713.955,445.827C713.955,393.188 686.566,346.898 645.28,320.43C622.137,305.594 594.625,296.991 565.119,296.991C500.257,296.991 445.03,338.57 424.661,396.505C423.02,401.172 418.213,403.938 413.353,403.011C403.794,401.188 393.928,400.234 383.842,400.234C297.313,400.234 227.064,470.484 227.064,557.012C227.064,643.54 297.313,713.79 383.842,713.79L723.955,713.79C795.142,713.79 852.936,655.995 852.936,584.808C852.936,546.45 836.153,511.981 809.539,488.346ZM540,405C614.509,405 675,465.491 675,540C675,614.509 614.509,675 540,675C465.491,675 405,614.509 405,540C405,465.491 465.491,405 540,405ZM540,425C476.53,425 425,476.53 425,540C425,603.47 476.53,655 540,655C603.47,655 655,603.47 655,540C655,476.53 603.47,425 540,425ZM615,540C615,534.481 619.481,530 625,530C630.519,530 635,534.481 635,540C635,545.519 630.519,550 625,550C619.481,550 615,545.519 615,540ZM540,615C545.519,615 550,619.481 550,625C550,630.519 545.519,635 540,635C534.481,635 530,630.519 530,625C530,619.481 534.481,615 540,615ZM465,540C465,545.519 460.519,550 455,550C449.481,550 445,545.519 445,540C445,534.481 449.481,530 455,530C460.519,530 465,534.481 465,540ZM540,465C534.481,465 530,460.519 530,455C530,449.481 534.481,445 540,445C545.519,445 550,449.481 550,455C550,460.519 545.519,465 540,465ZM536.692,549.85C535.202,549.383 533.8,548.56 532.621,547.381L497.701,512.461C493.799,508.559 493.799,502.222 497.701,498.319C501.604,494.417 507.941,494.417 511.844,498.319L539.692,526.168L593.561,472.299C597.464,468.396 603.8,468.396 607.703,472.299C611.606,476.201 611.606,482.538 607.703,486.441L546.763,547.381C545.583,548.56 544.182,549.383 542.692,549.85L542.692,608.255C542.692,609.911 541.348,611.255 539.692,611.255C538.036,611.255 536.692,609.911 536.692,608.255L536.692,549.85Z" style="fill:white;fill-opacity:0.99;"/>
    </g>
</svg>
